<svg width="48" height="40" viewBox="0 0 48 40" fill="none" xmlns="http://www.w3.org/2000/svg">
<path d="M29.0345 14.3549C29.0345 14.3549 27.961 6.1429 37.7879 4.57086C38.0291 4.54915 42.3555 3.32886 43.2763 2C43.1999 2 47.2569 17.3166 36.9435 21.5724C36.3886 21.9676 32.8543 22.7536 30.4941 20.161C31.057 20.0655 36.0991 17.7552 37.7879 11.2021C37.8643 11.1196 33.2564 19.1622 29.8789 18.5846C29.6859 18.3805 29.1672 16.9692 29.0345 14.3549Z" fill="#B3CC57"/>
<path d="M47.9832 22.8505C40.0344 17.9688 32.3887 16.0853 25.6312 15.7981V2.25929C25.6312 1.01351 24.6391 0 23.4105 0C22.1819 0 21.1898 1.00929 21.1898 2.25929V15.8361C8.58384 16.5709 0 22.4198 0 22.4198L7.39672 40H40.6903C40.6903 40 48.4066 22.8505 47.9832 22.8505Z" fill="#D89935"/>
</svg>
